<?xml version="1.0" standalone="no"?>
<!DOCTYPE svg PUBLIC "-//W3C//DTD SVG 20010904//EN"
 "http://www.w3.org/TR/2001/REC-SVG-20010904/DTD/svg10.dtd">
<svg version="1.0" xmlns="http://www.w3.org/2000/svg"
 width="1000.000000pt" height="850.000000pt" viewBox="0 0 1000.000000 850.000000"
 preserveAspectRatio="xMidYMid meet">
<metadata>
Created by potrace 1.16, written by Peter Selinger 2001-2019
</metadata>
<g transform="translate(0.000000,850.000000) scale(0.100000,-0.100000)"
fill="#000000" stroke="none">
<path d="M0 4250 l0 -4250 403 0 404 0 703 1555 c387 855 705 1555 708 1555 4
0 1775 -801 1780 -804 1 -2 -228 -511 -509 -1132 -281 -621 -515 -1139 -520
-1152 l-9 -23 154 3 153 3 1998 2070 c1099 1139 2001 2071 2005 2073 5 2 1874
-1793 2188 -2102 l52 -52 -911 -944 c-501 -520 -934 -969 -962 -997 l-51 -53
1207 0 1207 0 0 4250 0 4250 -5000 0 -5000 0 0 -4250z m1985 3012 c44 -12 116
-40 160 -61 215 -106 356 -337 355 -582 0 -126 -62 -283 -151 -382 -28 -32
-50 -59 -48 -61 99 -74 135 -107 174 -158 91 -120 130 -244 129 -408 -3 -309
-181 -564 -461 -661 -164 -57 -326 -68 -950 -69 l-453 0 0 1206 0 1205 583 -4
c559 -3 585 -4 662 -25z m2285 -1177 l0 -1205 -220 0 -220 0 0 33 0 33 -67
-33 c-96 -47 -195 -66 -318 -60 -116 6 -192 25 -290 72 -223 108 -381 324
-442 605 -25 119 -25 391 0 510 63 290 192 482 398 589 114 60 212 84 349 85
126 1 223 -21 308 -70 l42 -25 0 336 0 335 230 0 230 0 0 -1205z m3290 643 l0
-563 251 258 251 257 197 0 198 0 32 -82 32 -83 -276 -270 -277 -270 316 -469
315 -469 -42 -79 -42 -78 -190 1 -190 0 -185 287 c-101 158 -213 331 -248 385
l-65 99 -38 -38 -39 -38 0 -348 0 -348 -235 0 -235 0 0 1205 0 1205 235 0 235
0 0 -562z m-2185 -43 c84 -28 218 -103 212 -119 -30 -93 -154 -416 -159 -416
-3 0 -37 18 -75 40 -149 86 -266 71 -323 -41 -51 -99 -53 -126 -57 -716 l-4
-553 -230 0 -229 0 0 900 0 900 215 0 215 0 0 -24 0 -24 57 31 c32 17 80 37
108 44 67 17 182 8 270 -22z m1042 24 c261 -36 453 -176 551 -404 27 -64 80
-262 71 -269 -5 -3 -418 -66 -435 -66 -6 0 -19 29 -28 64 -47 190 -128 266
-283 266 -172 0 -287 -94 -335 -273 -24 -92 -34 -287 -19 -392 30 -216 109
-324 264 -362 58 -14 78 -14 134 -4 79 14 108 29 152 73 57 56 110 198 111
296 0 24 5 32 18 32 9 0 113 -12 230 -27 245 -31 223 -13 193 -161 -39 -185
-114 -327 -230 -434 -157 -146 -339 -207 -581 -195 -205 10 -360 73 -497 201
-153 142 -233 312 -263 556 -30 250 11 518 111 710 145 280 484 438 836 389z
m2803 -1579 l0 -250 -250 0 -250 0 0 250 0 250 250 0 250 0 0 -250z"/>
<path d="M1230 6600 l0 -242 293 5 c333 5 375 12 438 76 81 80 79 244 -4 329
-56 58 -97 65 -429 70 l-298 4 0 -242z"/>
<path d="M1230 5625 l0 -285 308 0 c339 0 393 7 467 58 22 15 53 49 69 75 25
41 30 61 34 131 5 101 -19 168 -81 221 -80 69 -179 84 -539 85 l-258 0 0 -285z"/>
<path d="M3395 6288 c-167 -62 -246 -250 -232 -557 11 -256 100 -409 265 -457
103 -30 207 1 287 87 84 90 115 197 115 407 0 219 -38 351 -127 440 -26 26
-66 56 -88 67 -47 23 -174 30 -220 13z"/>
</g>
</svg>
