<svg xmlns="http://www.w3.org/2000/svg" version="1.1" xmlns:xlink="http://www.w3.org/1999/xlink" xmlns:svgjs="http://svgjs.com/svgjs" width="1000.000000pt" height="1000.000000pt"><svg version="1.0" xmlns="http://www.w3.org/2000/svg" width="1000.000000pt" height="1000.000000pt" viewBox="0 0 1000.000000 1000.000000" preserveAspectRatio="xMidYMid meet">
<metadata>
Created by potrace 1.16, written by Peter Selinger 2001-2019
</metadata>
<g transform="translate(0.000000,1000.000000) scale(0.100000,-0.100000)" fill="#000000" stroke="none">
<path d="M5412 8890 c-47 -34 -163 -148 -467 -460 -121 -124 -486 -495 -810
-825 -959 -975 -889 -899 -936 -1018 -52 -130 -189 -549 -308 -942 -38 -126
-108 -356 -156 -510 -127 -410 -155 -502 -155 -516 0 -13 106 -245 240 -524
45 -93 100 -210 123 -259 l41 -88 116 -55 c200 -95 336 -153 357 -153 43 0 88
66 431 635 202 335 351 572 381 609 21 24 99 63 185 92 l69 24 541 -236 c298
-130 621 -272 719 -315 98 -44 185 -79 193 -79 14 0 405 251 456 293 31 24 34
41 93 588 14 130 30 249 34 265 l8 29 11 -40 c19 -70 92 -409 157 -730 l63
-309 -31 -46 c-17 -25 -71 -98 -120 -164 l-89 -119 75 -71 c90 -85 130 -140
145 -198 6 -24 27 -126 47 -228 40 -211 101 -468 116 -490 8 -12 23 -1 80 59
114 120 487 558 1127 1324 l115 137 157 0 157 0 254 -327 c141 -181 262 -328
270 -328 10 0 13 10 11 40 -6 77 -83 523 -143 820 -95 478 -158 712 -654 2410
-37 127 -77 265 -90 308 -12 42 -24 80 -27 82 -2 3 -461 232 -1019 509 -1162
577 -1695 836 -1718 836 -4 0 -26 -13 -49 -30z m1387 -1222 c185 -244 438
-595 916 -1269 l132 -185 13 -515 c6 -283 10 -572 8 -644 l-3 -129 -87 199
c-48 110 -141 328 -206 485 -66 157 -147 350 -181 430 l-62 145 -300 275
c-166 151 -349 320 -408 375 -59 55 -163 152 -231 215 -69 63 -165 153 -215
200 -50 47 -148 136 -218 199 -70 63 -127 118 -127 122 0 4 33 14 73 23 287
61 382 81 532 111 140 28 214 41 287 54 4 0 39 -41 77 -91z"></path>
<path d="M1790 4991 c-52 -15 -236 -74 -408 -131 l-312 -103 -188 -180 c-258
-248 -514 -509 -534 -545 -18 -29 -18 -30 23 -92 22 -34 136 -194 255 -355
205 -280 216 -294 252 -299 49 -8 414 -24 922 -40 l415 -14 198 196 c108 108
197 202 197 209 0 13 -51 123 -303 648 -116 243 -321 646 -353 694 -32 49 -36
49 -164 12z"></path>
<path d="M4488 4408 c-90 -137 -278 -445 -688 -1127 l-333 -554 5 -674 c3
-371 7 -676 9 -678 4 -3 393 -52 1958 -250 l343 -43 242 108 c718 320 786 355
786 403 0 27 -119 642 -281 1446 l-123 614 -86 40 c-87 40 -465 206 -645 282
-55 24 -206 89 -335 145 -451 197 -791 340 -804 340 -7 0 -29 -24 -48 -52z
m905 -806 c211 -119 418 -239 547 -320 120 -74 125 -79 142 -127 50 -144 261
-948 283 -1079 l7 -39 -134 -132 c-73 -72 -207 -197 -297 -278 l-164 -148 -56
6 c-31 3 -159 10 -286 15 -212 9 -638 37 -659 43 -5 2 56 50 135 107 221 159
682 506 701 526 19 22 37 212 63 666 l16 277 -183 229 c-191 239 -253 322
-243 322 3 0 61 -31 128 -68z"></path>
<path d="M8320 4022 c-135 -139 -703 -813 -907 -1077 -100 -129 -114 -166 -70
-185 60 -26 1434 -320 1495 -320 41 0 337 162 492 269 106 73 120 84 120 96 0
17 -283 391 -605 799 -99 126 -208 265 -243 310 -102 131 -162 196 -180 196
-9 0 -55 -39 -102 -88z"></path>
</g>
</svg><style>@media (prefers-color-scheme: light) { :root { filter: none; } }
@media (prefers-color-scheme: dark) { :root { filter: invert(100%); } }
</style></svg>
