<?xml version="1.0" standalone="no"?>
<!DOCTYPE svg PUBLIC "-//W3C//DTD SVG 20010904//EN"
 "http://www.w3.org/TR/2001/REC-SVG-20010904/DTD/svg10.dtd">
<svg version="1.0" xmlns="http://www.w3.org/2000/svg"
 width="1715.000000pt" height="557.000000pt" viewBox="0 0 1715.000000 557.000000"
 preserveAspectRatio="xMidYMid meet">
<metadata>
Created by potrace 1.16, written by Peter Selinger 2001-2019
</metadata>
<g transform="translate(0.000000,557.000000) scale(0.100000,-0.100000)"
fill="#000000" stroke="none">
<path d="M14150 5143 c-41 -15 -40 24 -40 -1478 0 -1229 2 -1444 14 -1461 14
-18 29 -19 335 -19 249 0 323 3 333 13 19 19 19 2915 0 2934 -10 10 -83 13
-320 15 -169 1 -314 -1 -322 -4z"/>
<path d="M5700 5017 l-25 -13 -3 -1394 -2 -1395 21 -17 c20 -17 61 -18 548
-18 565 0 760 9 941 41 252 44 401 109 520 228 44 44 90 102 109 136 119 222
133 555 34 763 -44 91 -151 191 -265 246 -51 25 -126 53 -165 63 -40 10 -72
22 -70 27 1 4 23 16 49 26 173 66 310 202 358 358 70 225 39 484 -75 636 -145
195 -405 293 -835 316 -273 15 -1109 13 -1140 -3z m1183 -596 c84 -27 159 -94
176 -156 24 -89 10 -197 -37 -267 -60 -91 -160 -118 -444 -118 l-198 0 0 286
0 286 218 -4 c187 -5 226 -8 285 -27z m108 -1089 c140 -46 199 -125 199 -263
0 -130 -40 -207 -132 -252 -89 -43 -130 -49 -410 -54 l-268 -5 0 302 0 302
273 -4 c246 -4 278 -6 338 -26z"/>
<path d="M842 4802 l-332 -167 2 -340 3 -340 332 -168 332 -167 336 167 335
168 0 340 0 340 -335 168 c-184 92 -336 167 -338 166 -1 0 -152 -75 -335 -167z"/>
<path d="M15360 4902 c-20 -16 -26 -47 -61 -282 -21 -146 -39 -268 -39 -272 0
-5 -78 -8 -173 -8 -134 0 -178 -3 -193 -14 -18 -13 -19 -30 -22 -258 -2 -183
1 -249 11 -268 l13 -25 172 -3 172 -2 0 -473 c0 -283 4 -508 11 -562 51 -413
245 -579 704 -601 232 -12 525 39 555 97 6 10 10 127 10 272 0 212 -2 257 -15
267 -12 10 -35 6 -117 -16 -78 -21 -127 -28 -203 -28 -92 -1 -104 1 -147 26
-55 33 -84 86 -99 180 -5 35 -8 233 -7 448 l3 385 274 3 c238 2 277 5 293 19
16 15 18 38 18 268 0 231 -1 253 -18 268 -16 15 -52 17 -295 17 l-277 0 0 274
c0 273 0 275 -22 290 -19 14 -63 16 -274 16 -227 0 -254 -2 -274 -18z"/>
<path d="M2878 4584 l-648 -324 0 -198 0 -197 365 -183 365 -183 0 -455 0
-454 290 -145 290 -145 650 325 650 325 0 655 0 655 -650 325 c-357 179 -653
325 -657 324 -5 0 -299 -146 -655 -325z"/>
<path d="M8719 4375 c-225 -31 -383 -98 -495 -209 -109 -110 -154 -225 -154
-396 0 -151 -26 -140 325 -140 334 0 325 -2 325 78 0 113 66 172 204 180 133
8 217 -21 252 -89 20 -40 36 -179 28 -259 l-6 -66 -232 -23 c-470 -46 -689
-113 -831 -256 -103 -102 -145 -215 -152 -411 -14 -340 111 -551 372 -630 83
-25 293 -25 384 0 145 40 295 129 441 262 l85 78 7 -40 c3 -21 14 -83 23 -138
26 -147 2 -137 331 -134 231 3 276 5 285 18 6 9 7 43 4 80 -3 36 -10 391 -14
790 -8 700 -9 728 -30 810 -93 362 -362 513 -908 509 -81 -1 -191 -7 -244 -14z
m481 -1394 l0 -139 -67 -61 c-140 -129 -331 -181 -427 -117 -44 28 -61 73 -61
161 0 144 56 216 194 250 64 16 256 41 329 44 l32 1 0 -139z"/>
<path d="M10775 4383 c-129 -15 -201 -28 -270 -50 -277 -86 -404 -266 -405
-569 0 -209 65 -355 205 -461 80 -60 138 -88 478 -233 373 -158 415 -187 424
-287 6 -63 -20 -110 -78 -143 -39 -22 -56 -25 -149 -25 -83 0 -113 4 -143 19
-55 27 -87 81 -97 161 -4 36 -14 72 -20 80 -10 13 -60 15 -305 15 -353 0 -326
12 -326 -146 1 -379 205 -561 681 -604 228 -21 489 -1 664 51 129 39 214 87
299 170 120 119 166 242 167 442 0 219 -66 366 -214 472 -83 59 -135 84 -441
210 -313 129 -384 164 -419 205 -72 86 -31 194 82 219 168 36 292 -20 308
-140 4 -28 13 -57 21 -65 12 -11 66 -14 302 -14 347 0 328 -7 318 123 -31 397
-321 581 -904 576 -81 -1 -161 -4 -178 -6z"/>
<path d="M12708 4379 c-210 -25 -395 -99 -507 -204 -114 -108 -163 -229 -165
-406 -2 -149 -25 -139 330 -139 291 0 293 0 308 22 10 13 16 44 16 74 0 63 28
108 85 138 33 18 58 21 150 21 134 0 176 -17 215 -86 23 -40 25 -57 28 -184
l4 -141 -189 -18 c-249 -23 -376 -41 -500 -72 -291 -71 -438 -187 -506 -399
-40 -122 -38 -374 4 -498 46 -136 139 -246 255 -301 162 -77 387 -73 589 11
84 35 236 138 327 223 50 45 80 67 82 58 2 -7 13 -69 24 -138 17 -102 24 -128
42 -142 20 -16 48 -18 284 -18 305 0 313 2 302 74 -4 22 -11 374 -15 781 -8
701 -10 745 -30 829 -87 371 -359 528 -901 524 -85 0 -189 -5 -232 -9z m462
-1398 l0 -139 -52 -48 c-117 -105 -225 -155 -334 -156 -117 -1 -164 44 -172
166 -11 175 64 254 268 285 86 14 210 28 258 30 l32 1 0 -139z"/>
<path d="M1652 3482 l-332 -167 2 -340 3 -340 332 -168 332 -167 336 167 335
168 0 340 0 340 -335 168 c-184 92 -336 167 -338 166 -1 0 -152 -75 -335 -167z"/>
<path d="M9127 1403 c-4 -3 -7 -35 -7 -70 l0 -63 95 0 95 0 0 -275 0 -275 80
0 80 0 0 275 0 275 95 0 96 0 -3 68 -3 67 -261 3 c-143 1 -263 -1 -267 -5z"/>
<path d="M9925 1398 c-3 -7 -4 -162 -3 -343 l3 -330 83 -3 82 -3 0 141 0 140
95 0 95 0 0 -140 0 -140 85 0 85 0 -2 343 -3 342 -80 0 -80 0 -3 -132 -3 -133
-94 0 -94 0 -3 133 -3 132 -78 3 c-56 2 -79 -1 -82 -10z"/>
<path d="M10730 1065 l0 -345 245 0 246 0 -3 68 -3 67 -162 3 -163 2 0 70 0
70 105 0 105 0 0 70 0 70 -105 0 -105 0 0 65 0 65 165 0 166 0 -3 68 -3 67
-242 3 -243 2 0 -345z"/>
<path d="M11490 1065 l0 -345 80 0 80 0 2 207 3 206 46 -74 c44 -71 47 -74 87
-77 41 -3 41 -3 89 69 l48 72 3 -201 2 -202 80 0 80 0 0 345 0 346 -77 -3 -78
-3 -70 -113 c-63 -101 -71 -110 -83 -95 -8 10 -41 61 -75 113 l-62 95 -77 3
-78 3 0 -346z"/>
<path d="M12385 1397 c-3 -6 -4 -161 -3 -342 l3 -330 243 -3 242 -2 0 70 0 70
-160 0 -160 0 0 70 0 70 105 0 105 0 0 70 0 70 -105 0 -105 0 0 65 0 65 160 0
160 0 0 70 0 70 -240 0 c-184 0 -242 -3 -245 -13z"/>
</g>
</svg>
