<?xml version="1.0" standalone="no"?>
<!DOCTYPE svg PUBLIC "-//W3C//DTD SVG 20010904//EN"
 "http://www.w3.org/TR/2001/REC-SVG-20010904/DTD/svg10.dtd">
<svg version="1.0" xmlns="http://www.w3.org/2000/svg"
 width="917.000000pt" height="207.000000pt" viewBox="0 0 917.000000 207.000000"
 preserveAspectRatio="xMidYMid meet">
<metadata>
Created by potrace 1.16, written by Peter Selinger 2001-2019
</metadata>
<g transform="translate(0.000000,207.000000) scale(0.100000,-0.100000)"
fill="#000000" stroke="none">
<path d="M210 1393 c0 -387 5 -503 20 -503 4 0 77 96 161 213 134 185 295 405
304 415 8 8 215 -263 215 -280 0 -11 -39 -114 -86 -230 -97 -239 -96 -226 -37
-352 l37 -78 -22 -41 -23 -41 63 -133 63 -133 448 0 447 0 0 780 0 780 -795 0
-795 0 0 -397z m993 -465 c15 -6 27 -14 27 -18 0 -5 -21 -34 -47 -67 -26 -32
-47 -59 -48 -60 -2 -3 -128 38 -134 43 -3 3 28 143 36 156 3 6 68 -15 166 -54z
m250 -287 c100 -67 101 -69 93 -149 -3 -37 -11 -83 -16 -103 -10 -36 -12 -37
-113 -66 l-102 -30 -42 34 c-23 19 -45 43 -48 54 -8 23 12 124 31 161 15 29
111 148 120 148 3 0 37 -22 77 -49z m-384 -52 l43 -61 -44 -45 -45 -44 -47 57
c-45 55 -46 57 -29 78 37 45 67 76 73 76 3 0 25 -28 49 -61z"/>
<path d="M2290 1010 l0 -780 165 0 165 0 0 57 0 57 33 -31 c75 -73 200 -108
352 -100 164 9 277 59 380 168 75 80 120 168 140 275 42 216 -8 413 -140 553
-102 108 -216 159 -376 168 -128 8 -225 -14 -308 -67 l-61 -40 0 260 0 260
-175 0 -175 0 0 -780z m742 66 c52 -25 107 -82 132 -135 30 -66 30 -226 0
-292 -45 -98 -127 -151 -240 -157 -57 -3 -81 0 -122 18 -60 26 -115 83 -145
149 -29 65 -30 207 0 272 29 64 80 118 138 146 42 20 62 23 125 21 46 -2 89
-11 112 -22z"/>
<path d="M7430 1010 l0 -780 170 0 170 0 0 780 0 780 -170 0 -170 0 0 -780z"/>
<path d="M8180 1475 l0 -135 -85 0 -85 0 0 -130 0 -130 84 0 84 0 4 -282 c5
-309 10 -340 67 -430 36 -56 92 -99 170 -130 48 -19 75 -22 186 -23 136 0 213
16 262 53 l22 17 -43 113 c-24 62 -46 115 -48 118 -3 2 -25 -5 -49 -16 -83
-37 -167 -21 -203 40 -14 24 -16 65 -16 284 l0 256 140 0 140 0 0 130 0 130
-140 0 -140 0 0 135 0 135 -175 0 -175 0 0 -135z"/>
<path d="M4003 1365 c-90 -16 -163 -40 -233 -76 -91 -47 -89 -34 -26 -155 32
-60 61 -112 65 -117 4 -4 38 9 77 28 239 121 471 73 504 -105 l7 -37 -206 -6
c-261 -7 -345 -27 -437 -102 -116 -95 -138 -304 -45 -432 66 -91 181 -143 333
-151 159 -8 263 21 341 96 l37 36 0 -57 0 -57 161 0 160 0 -3 387 c-4 366 -5
392 -26 453 -54 165 -169 259 -357 295 -93 18 -254 18 -352 0z m397 -715 c0
-115 -85 -197 -216 -208 -134 -10 -221 61 -193 162 20 73 83 94 277 95 l132 1
0 -50z"/>
<path d="M5286 1365 c-98 -20 -207 -75 -260 -130 -115 -118 -117 -336 -5 -442
69 -65 155 -93 398 -133 136 -22 181 -41 195 -83 8 -21 6 -33 -10 -54 -29 -38
-75 -51 -182 -52 -113 -1 -212 20 -311 65 -41 19 -79 34 -85 34 -13 -1 -119
-227 -111 -239 10 -18 124 -64 215 -89 83 -22 116 -25 265 -26 135 -1 184 3
235 17 148 41 238 105 287 206 23 47 28 69 28 136 0 67 -5 89 -28 137 -58 119
-123 148 -486 217 -58 11 -116 28 -129 38 -56 42 -44 94 28 131 86 43 299 24
421 -38 21 -11 40 -20 43 -20 10 0 116 233 110 242 -10 16 -93 48 -179 69
-107 27 -342 34 -439 14z"/>
<path d="M6413 1365 c-90 -16 -163 -40 -233 -76 -91 -47 -89 -34 -26 -155 32
-60 61 -112 65 -117 4 -4 38 9 77 28 239 121 471 73 504 -105 l7 -37 -206 -6
c-261 -7 -345 -27 -437 -102 -116 -95 -138 -304 -45 -432 66 -91 181 -143 333
-151 159 -8 263 21 341 96 l37 36 0 -57 0 -57 161 0 160 0 -3 387 c-4 366 -5
392 -26 453 -54 165 -169 259 -357 295 -93 18 -254 18 -352 0z m397 -715 c0
-115 -85 -197 -216 -208 -134 -10 -221 61 -193 162 20 73 83 94 277 95 l132 1
0 -50z"/>
</g>
</svg>
