<svg xmlns="http://www.w3.org/2000/svg" version="1.1" xmlns:xlink="http://www.w3.org/1999/xlink" xmlns:svgjs="http://svgjs.com/svgjs" width="200.000000pt" height="201.000000pt"><svg version="1.0" xmlns="http://www.w3.org/2000/svg" width="200.000000pt" height="201.000000pt" viewBox="0 0 200.000000 201.000000" preserveAspectRatio="xMidYMid meet">
<metadata>
Created by potrace 1.16, written by Peter Selinger 2001-2019
</metadata>
<g transform="translate(0.000000,201.000000) scale(0.100000,-0.100000)" fill="#000000" stroke="none">
<path d="M100 1353 c0 -525 1 -528 20 -503 11 14 56 77 102 140 171 240 342
476 368 510 15 19 32 45 39 58 6 12 15 22 20 22 5 0 37 -37 72 -82 35 -46 66
-85 69 -88 11 -9 112 -144 116 -155 4 -10 -21 -77 -162 -420 -52 -125 -53
-115 17 -259 22 -44 39 -85 39 -91 0 -7 -11 -32 -24 -56 l-25 -44 61 -125 c33
-69 64 -135 69 -147 l9 -23 510 0 510 0 0 895 0 895 -905 0 -905 0 0 -527z
m1010 -414 c30 -11 72 -27 92 -34 85 -32 85 -27 17 -113 -34 -42 -63 -78 -64
-80 -3 -3 -156 47 -163 54 -4 3 37 174 44 186 7 11 13 10 74 -13z m361 -342
c19 -13 63 -43 97 -67 35 -23 66 -49 69 -57 9 -23 -24 -245 -37 -253 -7 -4
-64 -22 -126 -40 l-114 -32 -48 38 c-68 56 -70 59 -60 123 16 110 30 144 83
206 28 33 60 70 71 83 23 27 23 27 65 -1z m-430 -39 c7 -13 29 -45 50 -72 22
-27 39 -53 39 -59 0 -5 -23 -34 -50 -63 l-50 -53 -61 70 c-52 61 -58 73 -47
87 47 61 92 112 99 112 5 0 14 -10 20 -22z"></path>
</g>
</svg><style>@media (prefers-color-scheme: light) { :root { filter: none; } }
@media (prefers-color-scheme: dark) { :root { filter: invert(100%); } }
</style></svg>