<?xml version="1.0" standalone="no"?>
<!DOCTYPE svg PUBLIC "-//W3C//DTD SVG 20010904//EN"
 "http://www.w3.org/TR/2001/REC-SVG-20010904/DTD/svg10.dtd">
<svg version="1.0" xmlns="http://www.w3.org/2000/svg"
 width="1479.000000pt" height="358.000000pt" viewBox="0 0 1479.000000 358.000000"
 preserveAspectRatio="xMidYMid meet">
<metadata>
Created by potrace 1.16, written by Peter Selinger 2001-2019
</metadata>
<g transform="translate(0.000000,358.000000) scale(0.100000,-0.100000)"
fill="#000000" stroke="none">
<path d="M2230 3373 c-46 -49 -239 -246 -429 -438 -190 -193 -365 -371 -389
-396 -42 -45 -45 -54 -178 -479 l-134 -433 87 -185 88 -185 85 -39 c47 -22 95
-44 107 -48 20 -8 33 10 179 253 86 144 164 269 173 278 9 9 37 23 63 32 l47
16 310 -135 309 -135 99 63 c54 34 101 66 104 71 3 4 14 94 24 200 12 118 21
183 26 171 8 -19 99 -445 99 -462 0 -5 -23 -39 -50 -75 l-51 -67 45 -42 c32
-31 46 -54 51 -83 24 -137 61 -297 69 -298 5 -1 133 145 284 326 l275 327 67
0 67 0 103 -132 c122 -158 118 -153 125 -147 2 3 -18 126 -45 275 -45 240 -66
324 -198 774 l-147 505 -575 287 c-316 157 -582 287 -591 287 -9 1 -53 -38
-99 -86z m884 -736 l233 -327 8 -281 c4 -154 5 -282 4 -284 -2 -2 -56 120
-119 271 l-115 274 -278 257 c-153 142 -299 277 -325 300 -26 24 -45 43 -42
43 3 1 88 18 190 40 102 21 191 37 198 37 7 -1 117 -149 246 -330z"/>
<path d="M13855 3041 l-280 -146 -3 -183 -2 -182 -140 0 -140 0 0 -190 0 -190
139 0 138 0 6 -492 c4 -372 9 -507 19 -548 44 -174 156 -268 364 -305 136 -25
464 -16 579 15 44 11 90 24 103 27 13 3 21 11 19 17 -2 6 -26 99 -52 207 l-47
197 -47 -21 c-65 -29 -187 -35 -246 -12 -49 18 -85 58 -104 114 -7 23 -11 157
-11 417 l0 384 200 0 200 0 0 190 0 190 -200 0 -200 0 0 324 c0 179 -3 327 -7
329 -5 2 -134 -62 -288 -142z"/>
<path d="M4950 1995 l0 -1185 678 0 c707 0 783 4 922 46 119 35 247 117 334
212 48 52 110 174 132 257 22 86 25 285 5 365 -18 76 -72 187 -116 238 -49 56
-146 124 -222 154 l-61 24 46 25 c78 41 168 137 207 221 77 167 61 404 -36
551 -65 99 -175 179 -304 222 -149 50 -230 55 -934 55 l-651 0 0 -1185z m1210
685 c63 -24 118 -70 135 -113 32 -79 15 -189 -37 -244 -12 -13 -46 -33 -77
-45 -52 -21 -76 -22 -328 -26 l-273 -4 0 227 0 227 273 -4 c195 -3 282 -8 307
-18z m65 -866 c44 -13 72 -30 105 -64 51 -51 70 -100 70 -181 0 -76 -16 -125
-56 -169 -73 -80 -177 -100 -536 -100 l-228 0 0 271 0 271 293 -5 c245 -4 302
-7 352 -23z"/>
<path d="M12650 1995 l0 -1185 285 0 285 0 0 1185 0 1185 -285 0 -285 0 0
-1185z"/>
<path d="M7870 2570 c-318 -34 -511 -137 -600 -325 -31 -64 -60 -170 -60 -217
l0 -28 269 0 270 0 16 55 c32 111 105 155 256 156 190 1 256 -48 266 -199 l6
-78 -129 -23 c-471 -85 -696 -140 -792 -193 -80 -45 -157 -125 -192 -200 -50
-108 -59 -276 -22 -403 29 -98 96 -186 190 -248 86 -57 167 -84 302 -98 238
-26 486 34 601 145 l44 42 15 -70 15 -71 293 -3 293 -2 -21 40 c-51 99 -52
122 -49 719 4 589 2 626 -43 715 -49 96 -165 183 -307 231 -141 48 -437 74
-621 55z m418 -1097 c-4 -101 -9 -126 -32 -175 -32 -67 -89 -121 -165 -156
-108 -50 -277 -30 -335 38 -47 56 -52 163 -11 226 35 54 137 93 394 150 80 18
148 33 150 33 2 1 2 -52 -1 -116z"/>
<path d="M9610 2569 c-403 -38 -620 -219 -622 -519 -1 -116 19 -195 69 -268
43 -64 133 -133 211 -162 81 -31 274 -85 367 -105 153 -31 309 -75 350 -100
51 -30 69 -68 62 -132 -10 -90 -106 -143 -256 -143 -124 1 -212 27 -251 77
-11 14 -27 50 -36 80 l-15 53 -281 0 -280 0 7 -52 c16 -127 49 -190 153 -296
142 -146 302 -209 589 -232 395 -32 725 79 858 290 112 178 107 445 -12 595
-84 106 -304 198 -608 255 -208 38 -334 81 -355 121 -19 34 -14 95 10 128 33
47 101 64 229 59 89 -4 114 -8 152 -29 41 -23 75 -70 93 -131 5 -17 26 -18
266 -18 l260 0 0 28 c0 39 -27 127 -58 187 -13 27 -55 80 -93 118 -160 160
-450 230 -809 196z"/>
<path d="M11425 2570 c-365 -37 -573 -178 -640 -435 -8 -32 -15 -76 -15 -97
l0 -38 268 0 268 0 13 51 c29 112 111 160 269 160 181 0 252 -59 252 -209 l0
-68 -257 -48 c-527 -98 -640 -134 -753 -242 -96 -92 -140 -202 -140 -354 0
-153 45 -267 144 -366 127 -127 340 -183 586 -155 181 20 298 64 388 145 l52
48 0 -32 c0 -17 5 -51 11 -76 l11 -44 289 0 c159 0 289 3 289 8 0 4 -7 17 -15
29 -8 11 -22 47 -31 80 -13 50 -15 136 -14 624 1 620 -1 648 -57 752 -68 125
-235 214 -467 252 -117 19 -336 26 -451 15z m422 -1082 c-10 -165 -43 -243
-132 -307 -67 -48 -119 -64 -215 -64 -141 -1 -214 51 -227 161 -13 113 44 177
196 222 63 18 345 85 375 89 5 1 6 -43 3 -101z"/>
<path d="M632 1742 l-174 -57 -159 -154 c-88 -85 -158 -159 -155 -166 2 -7 52
-78 111 -158 l106 -145 92 -6 c51 -3 182 -8 292 -11 l200 -6 84 85 84 84 -140
294 c-77 161 -147 294 -154 295 -8 1 -92 -23 -187 -55z"/>
<path d="M1702 1189 l-222 -370 2 -287 3 -286 490 -62 489 -61 221 98 c204 91
220 100 217 122 -3 32 -171 869 -174 873 -6 5 -789 344 -796 344 -4 0 -107
-167 -230 -371z m708 -55 c91 -52 170 -101 176 -107 14 -15 136 -474 132 -497
-2 -9 -59 -67 -128 -129 l-125 -112 -143 7 c-78 3 -177 9 -220 13 l-77 6 183
134 c100 73 185 137 188 142 3 5 11 97 17 203 l11 194 -97 121 c-54 67 -94
121 -90 121 5 0 83 -43 173 -96z"/>
<path d="M3355 1148 c-125 -149 -230 -279 -232 -288 -3 -10 -1 -20 4 -23 10
-7 621 -137 641 -137 26 0 263 142 260 156 -3 14 -409 534 -431 553 -11 8 -60
-44 -242 -261z"/>
</g>
</svg>
